<svg width="243" height="236" viewBox="0 0 243 236" fill="none" xmlns="http://www.w3.org/2000/svg">
<path d="M28.3 98.1L10.4 94.3C10.3 94.9 10.1 95.6 10 96.2L27.9 100C28 99.4 28.2 98.7 28.3 98.1Z" fill="white"/>
<path d="M25.7651 108.184L7.61423 105.861C7.56365 106.467 7.42158 107.181 7.37099 107.787L25.5218 110.11C25.5724 109.504 25.7145 108.79 25.7651 108.184Z" fill="white"/>
<path d="M24.7256 117.11L6.42765 116.919C6.44807 117.527 6.3902 118.253 6.41062 118.861L24.7085 119.052C24.6881 118.444 24.746 117.718 24.7256 117.11Z" fill="white"/>
<path d="M25.5585 125.037L7.36567 127.004C7.45764 127.606 7.48574 128.333 7.5777 128.934L25.7705 126.967C25.6786 126.365 25.6505 125.638 25.5585 125.037Z" fill="white"/>
<path d="M216.386 125.361L234.536 127.684C234.587 127.078 234.729 126.364 234.78 125.758L216.629 123.435C216.578 124.041 216.436 124.755 216.386 125.361Z" fill="white"/>
<path d="M217.327 117.019L235.614 117.684C235.609 117.076 235.686 116.352 235.681 115.743L217.394 115.078C217.399 115.686 217.322 116.41 217.327 117.019Z" fill="white"/>
<path d="M216.474 108.848L234.762 108.211C234.714 107.605 234.739 106.877 234.691 106.271L216.403 106.908C216.451 107.514 216.426 108.242 216.474 108.848Z" fill="white"/>
<path d="M31 88.5L13.6 82.8C13.4 83.4 13.2 84 13 84.7L30.4 90.4C30.6 89.7 30.8 89.1 31 88.5Z" fill="white"/>
<path d="M34.7001 79.1L18.0001 71.6C17.7001 72.2 17.4001 72.8 17.2001 73.4L33.9001 80.9C34.1001 80.3 34.4001 79.7 34.7001 79.1Z" fill="white"/>
<path d="M39.3 70.3L23.4 61.1C23.1 61.7 22.7 62.2 22.4 62.8L38.3 72C38.7 71.4 39 70.8 39.3 70.3Z" fill="white"/>
<path d="M44.9 61.9L30 51.2C29.6 51.7 29.2 52.3 28.9 52.8L43.7 63.6C44.1 63 44.5 62.5 44.9 61.9V61.9Z" fill="white"/>
<path d="M51.3 54.2L37.6001 42C37.2001 42.5 36.7 43 36.3 43.5L49.9 55.8C50.4 55.2 50.8 54.7 51.3 54.2Z" fill="white"/>
<path d="M58.4001 47.2L46.1001 33.6C45.6001 34 45.1001 34.5 44.6001 34.9L56.9001 48.5C57.4001 48.1 57.9001 47.7 58.4001 47.2Z" fill="white"/>
<path d="M66.3 41L55.5 26.2C55 26.6 54.4 27 53.9 27.3L64.6 42.2C65.2 41.8 65.7 41.4 66.3 41Z" fill="white"/>
<path d="M74.7001 35.7L65.5 19.8C64.9 20.1 64.4 20.5 63.8 20.8L73 36.7C73.5 36.3 74.1001 36 74.7001 35.7Z" fill="white"/>
<path d="M83.6001 31.2L76.1001 14.5C75.5001 14.8 74.9 15 74.3 15.3L81.8 32C82.4 31.7 83.0001 31.5 83.6001 31.2Z" fill="white"/>
<path d="M93 27.7L87.3 10.3C86.7 10.5 86 10.7 85.4 10.9L91.1 28.3C91.8 28.1 92.4 27.9 93 27.7Z" fill="white"/>
<path d="M102.7 25.2L98.9 7.30002C98.2 7.40002 97.6 7.60002 97 7.70002L100.8 25.6C101.4 25.5 102.1 25.4 102.7 25.2Z" fill="white"/>
<path d="M112.6 23.8L110.7 5.60001C110 5.70001 109.4 5.7 108.7 5.8L110.6 24C111.3 23.9 112 23.8 112.6 23.8V23.8Z" fill="white"/>
<path d="M121.6 23.4H122.6V5H120.6V23.3C121 23.4 121.3 23.4 121.6 23.4V23.4Z" fill="white"/>
<path d="M132.6 24L134.5 5.8C133.8 5.7 133.2 5.60001 132.5 5.60001L130.6 23.8C131.3 23.8 131.9 23.9 132.6 24Z" fill="white"/>
<path d="M142.5 25.7L146.3 7.80002C145.7 7.70002 145 7.50002 144.4 7.40002L140.5 25.2C141.2 25.4 141.8 25.5 142.5 25.7Z" fill="white"/>
<path d="M152.1 28.3L157.8 10.9C157.2 10.7 156.6 10.5 155.9 10.3L150.2 27.7C150.8 27.9 151.5 28.1 152.1 28.3Z" fill="white"/>
<path d="M161.4 32L168.9 15.3C168.3 15 167.7 14.7 167.1 14.5L159.6 31.2C160.2 31.5 160.8 31.8 161.4 32V32Z" fill="white"/>
<path d="M170.3 36.7L179.5 20.8C178.9 20.5 178.4 20.1 177.8 19.8L168.6 35.7C169.1 36 169.7 36.3 170.3 36.7Z" fill="white"/>
<path d="M178.6 42.2L189.4 27.4C188.9 27 188.3 26.6 187.8 26.3L177 41.1C177.5 41.4 178.1 41.8 178.6 42.2Z" fill="white"/>
<path d="M186.3 48.6L198.6 35C198.1 34.6 197.6 34.1 197.1 33.7L184.8 47.3C185.3 47.7 185.8 48.1 186.3 48.6V48.6Z" fill="white"/>
<path d="M193.3 55.7L206.9 43.4C206.5 42.9 206 42.4 205.6 41.9L192 54.2C192.4 54.7 192.9 55.2 193.3 55.7Z" fill="white"/>
<path d="M199.5 63.6L214.3 52.8C213.9 52.3 213.5 51.7 213.2 51.2L198.4 62C198.8 62.5 199.1 63 199.5 63.6Z" fill="white"/>
<path d="M204.9 72L220.8 62.8C220.5 62.2 220.1 61.7 219.8 61.1L203.9 70.3C204.2 70.9 204.6 71.4 204.9 72Z" fill="white"/>
<path d="M209.3 81L226 73.5C225.7 72.9 225.5 72.3 225.2 71.7L208.5 79.2C208.8 79.8 209.1 80.4 209.3 81Z" fill="white"/>
<path d="M212.8 90.3L230.2 84.6C230 84 229.8 83.4 229.6 82.7L212.2 88.4C212.4 89.1 212.6 89.7 212.8 90.3Z" fill="white"/>
<path d="M215.3 100L233.2 96.2C233.1 95.5 232.9 94.9 232.8 94.3L214.9 98.1C215 98.7 215.2 99.4 215.3 100Z" fill="white"/>
<path d="M215.049 136.368L233.04 139.708C233.125 139.106 233.307 138.401 233.391 137.799L215.4 134.458C215.315 135.06 215.133 135.765 215.049 136.368Z" fill="white"/>
<path d="M211.2 145.5L228.6 151.2C228.8 150.6 229 150 229.2 149.3L211.8 143.6C211.6 144.3 211.4 144.9 211.2 145.5Z" fill="white"/>
<path d="M207.5 154.9L224.2 162.4C224.5 161.8 224.8 161.2 225 160.6L208.3 153.1C208.1 153.7 207.8 154.3 207.5 154.9Z" fill="white"/>
<path d="M202.9 163.7L218.8 172.9C219.1 172.3 219.5 171.8 219.8 171.2L203.9 162C203.5 162.6 203.2 163.2 202.9 163.7Z" fill="white"/>
<path d="M197.3 172.1L212.2 182.8C212.6 182.3 213 181.7 213.3 181.2L198.5 170.4C198.1 171 197.7 171.5 197.3 172.1V172.1Z" fill="white"/>
<path d="M190.9 179.8L204.6 192C205 191.5 205.5 191 205.9 190.5L192.3 178.2C191.8 178.8 191.4 179.3 190.9 179.8Z" fill="white"/>
<path d="M183.8 186.8L196.1 200.4C196.6 200 197.1 199.5 197.6 199.1L185.3 185.5C184.8 185.9 184.3 186.3 183.8 186.8Z" fill="white"/>
<path d="M175.9 193L186.7 207.8C187.2 207.4 187.8 207 188.3 206.7L177.6 191.8C177 192.2 176.5 192.6 175.9 193Z" fill="white"/>
<path d="M167.5 198.3L176.7 214.2C177.3 213.9 177.8 213.5 178.4 213.2L169.2 197.3C168.7 197.7 168.1 198 167.5 198.3Z" fill="white"/>
<path d="M158.6 202.8L166.1 219.5C166.7 219.2 167.3 219 167.9 218.7L160.4 202C159.8 202.3 159.2 202.5 158.6 202.8Z" fill="white"/>
<path d="M149.2 206.3L154.9 223.7C155.5 223.5 156.2 223.3 156.8 223.1L151.1 205.7C150.4 205.9 149.8 206.1 149.2 206.3Z" fill="white"/>
<path d="M139.5 208.8L143.3 226.7C144 226.6 144.6 226.4 145.2 226.3L141.4 208.4C140.8 208.5 140.1 208.6 139.5 208.8Z" fill="white"/>
<path d="M129.6 210.2L131.5 228.4C132.2 228.3 132.8 228.3 133.5 228.2L131.6 210C130.9 210.1 130.2 210.2 129.6 210.2V210.2Z" fill="white"/>
<path d="M120.6 210.6H119.6V229H121.6V210.7C121.2 210.6 120.9 210.6 120.6 210.6V210.6Z" fill="white"/>
<path d="M109.6 210L107.7 228.2C108.4 228.3 109 228.4 109.7 228.4L111.6 210.2C110.9 210.2 110.3 210.1 109.6 210Z" fill="white"/>
<path d="M99.7 208.3L95.8999 226.2C96.4999 226.3 97.1999 226.5 97.7999 226.6L101.7 208.8C101 208.6 100.4 208.5 99.7 208.3Z" fill="white"/>
<path d="M90.0999 205.7L84.3999 223.1C84.9999 223.3 85.5999 223.5 86.2999 223.7L91.9999 206.3C91.3999 206.1 90.6999 205.9 90.0999 205.7Z" fill="white"/>
<path d="M80.7999 202L73.2999 218.7C73.8999 219 74.4999 219.3 75.0999 219.5L82.5999 202.8C81.9999 202.5 81.3999 202.2 80.7999 202V202Z" fill="white"/>
<path d="M71.8999 197.3L62.6999 213.2C63.2999 213.5 63.7999 213.9 64.3999 214.2L73.5999 198.3C73.0999 198 72.4999 197.7 71.8999 197.3Z" fill="white"/>
<path d="M63.5999 191.8L52.7999 206.6C53.2999 207 53.8999 207.4 54.3999 207.7L65.2 192.9C64.7 192.6 64.0999 192.2 63.5999 191.8Z" fill="white"/>
<path d="M55.8999 185.4L43.5999 199C44.0999 199.4 44.5999 199.9 45.0999 200.3L57.3999 186.7C56.8999 186.3 56.3999 185.9 55.8999 185.4V185.4Z" fill="white"/>
<path d="M48.8999 178.3L35.2999 190.6C35.6999 191.1 36.1999 191.6 36.5999 192.1L50.2 179.8C49.8 179.3 49.2999 178.8 48.8999 178.3Z" fill="white"/>
<path d="M42.6999 170.4L27.8999 181.2C28.2999 181.7 28.6999 182.3 28.9999 182.8L43.7999 172C43.3999 171.5 43.0999 171 42.6999 170.4Z" fill="white"/>
<path d="M37.2999 162L21.3999 171.2C21.6999 171.8 22.0999 172.3 22.3999 172.9L38.2999 163.7C37.9999 163.1 37.5999 162.6 37.2999 162Z" fill="white"/>
<path d="M32.8999 153L16.1999 160.5C16.4999 161.1 16.7 161.7 17 162.3L33.7 154.8C33.4 154.2 33.0999 153.6 32.8999 153Z" fill="white"/>
<path d="M29.3999 143.7L11.9999 149.4C12.1999 150 12.3999 150.6 12.5999 151.3L29.9999 145.6C29.7999 144.9 29.5999 144.3 29.3999 143.7Z" fill="white"/>
<path d="M26.8999 134L8.99994 137.8C9.09994 138.5 9.29993 139.1 9.39993 139.7L27.2999 135.9C27.1999 135.3 26.9999 134.6 26.8999 134Z" fill="white"/>
<rect x="108" y="1" width="27" height="25" fill="#d1d1d1"/>
<path d="M128.094 22H125.832L117.242 8.85156V22H114.98V4.9375H117.242L125.855 18.1445V4.9375H128.094V22Z" fill="white"/>
<rect x="216" y="110" width="27" height="25" fill="#d1d1d1"/>
<path d="M235.625 123.113H228.23V129.16H236.82V131H225.98V113.938H236.703V115.789H228.23V121.273H235.625V123.113Z" fill="white"/>
<rect y="110" width="27" height="25" fill="#d1d1d1"/>
<path d="M7.66016 125.621L7.98828 127.871L8.46875 125.844L11.8438 113.938H13.7422L17.0352 125.844L17.5039 127.906L17.8672 125.609L20.5156 113.938H22.7773L18.6406 131H16.5898L13.0742 118.566L12.8047 117.266L12.5352 118.566L8.89062 131H6.83984L2.71484 113.938H4.96484L7.66016 125.621Z" fill="white"/>
<rect x="108" y="209" width="27" height="25" fill="#d1d1d1"/>
<path d="M121.008 222.395C119.078 221.84 117.672 221.16 116.789 220.355C115.914 219.543 115.477 218.543 115.477 217.355C115.477 216.012 116.012 214.902 117.082 214.027C118.16 213.145 119.559 212.703 121.277 212.703C122.449 212.703 123.492 212.93 124.406 213.383C125.328 213.836 126.039 214.461 126.539 215.258C127.047 216.055 127.301 216.926 127.301 217.871H125.039C125.039 216.84 124.711 216.031 124.055 215.445C123.398 214.852 122.473 214.555 121.277 214.555C120.168 214.555 119.301 214.801 118.676 215.293C118.059 215.777 117.75 216.453 117.75 217.32C117.75 218.016 118.043 218.605 118.629 219.09C119.223 219.566 120.227 220.004 121.641 220.402C123.062 220.801 124.172 221.242 124.969 221.727C125.773 222.203 126.367 222.762 126.75 223.402C127.141 224.043 127.336 224.797 127.336 225.664C127.336 227.047 126.797 228.156 125.719 228.992C124.641 229.82 123.199 230.234 121.395 230.234C120.223 230.234 119.129 230.012 118.113 229.566C117.098 229.113 116.312 228.496 115.758 227.715C115.211 226.934 114.938 226.047 114.938 225.055H117.199C117.199 226.086 117.578 226.902 118.336 227.504C119.102 228.098 120.121 228.395 121.395 228.395C122.582 228.395 123.492 228.152 124.125 227.668C124.758 227.184 125.074 226.523 125.074 225.688C125.074 224.852 124.781 224.207 124.195 223.754C123.609 223.293 122.547 222.84 121.008 222.395Z" fill="white"/>
</svg>
