<svg width="231" height="193" viewBox="0 0 231 193" fill="none" xmlns="http://www.w3.org/2000/svg">
<path d="M22.3 93.1L4.4 89.3C4.3 89.9 4.1 90.6 4 91.2L21.9 95C22 94.4 22.2 93.7 22.3 93.1Z" fill="white"/>
<path d="M19.7651 103.184L1.61423 100.861C1.56365 101.467 1.42158 102.181 1.37099 102.787L19.5218 105.11C19.5724 104.504 19.7145 103.79 19.7651 103.184Z" fill="white"/>
<path d="M18.7256 112.11L0.427648 111.919C0.448068 112.527 0.390201 113.253 0.410622 113.861L18.7085 114.052C18.6881 113.444 18.746 112.718 18.7256 112.11Z" fill="white"/>
<path d="M19.5585 120.037L1.36567 122.004C1.45764 122.606 1.48574 123.333 1.5777 123.934L19.7705 121.967C19.6786 121.365 19.6505 120.638 19.5585 120.037Z" fill="white"/>
<path d="M210.386 120.361L228.536 122.684C228.587 122.078 228.729 121.364 228.78 120.758L210.629 118.435C210.578 119.041 210.436 119.755 210.386 120.361Z" fill="white"/>
<path d="M211.327 112.019L229.614 112.684C229.609 112.076 229.686 111.352 229.681 110.743L211.394 110.078C211.399 110.686 211.322 111.41 211.327 112.019Z" fill="white"/>
<path d="M210.474 103.848L228.762 103.211C228.714 102.605 228.739 101.877 228.691 101.271L210.403 101.908C210.451 102.514 210.426 103.242 210.474 103.848Z" fill="white"/>
<path d="M25 83.5L7.6 77.8C7.4 78.4 7.2 79 7 79.7L24.4 85.4C24.6 84.7 24.8 84.1 25 83.5Z" fill="white"/>
<path d="M28.7001 74.1L12.0001 66.6C11.7001 67.2 11.4001 67.8 11.2001 68.4L27.9001 75.9C28.1001 75.3 28.4001 74.7 28.7001 74.1Z" fill="white"/>
<path d="M33.3 65.3L17.4 56.1C17.1 56.7 16.7 57.2 16.4 57.8L32.3 67C32.7 66.4 33 65.8 33.3 65.3Z" fill="white"/>
<path d="M38.9 56.9L24 46.2C23.6 46.7 23.2 47.3 22.9 47.8L37.7 58.6C38.1 58 38.5 57.5 38.9 56.9V56.9Z" fill="white"/>
<path d="M45.3 49.2L31.6001 37C31.2001 37.5 30.7 38 30.3 38.5L43.9 50.8C44.4 50.2 44.8 49.7 45.3 49.2Z" fill="white"/>
<path d="M52.4001 42.2L40.1001 28.6C39.6001 29 39.1001 29.5 38.6001 29.9L50.9001 43.5C51.4001 43.1 51.9001 42.7 52.4001 42.2Z" fill="white"/>
<path d="M60.3 36L49.5 21.2C49 21.6 48.4 22 47.9 22.3L58.6 37.2C59.2 36.8 59.7 36.4 60.3 36Z" fill="white"/>
<path d="M68.7001 30.7L59.5 14.8C58.9 15.1 58.4 15.5 57.8 15.8L67 31.7C67.5 31.3 68.1001 31 68.7001 30.7Z" fill="white"/>
<path d="M77.6001 26.2L70.1001 9.5C69.5001 9.8 68.9 10 68.3 10.3L75.8 27C76.4 26.7 77.0001 26.5 77.6001 26.2Z" fill="white"/>
<path d="M87 22.7L81.3 5.30002C80.7 5.50002 80 5.70002 79.4 5.90002L85.1 23.3C85.8 23.1 86.4 22.9 87 22.7Z" fill="white"/>
<path d="M96.7 20.2L92.9 2.30002C92.2 2.40002 91.6 2.60002 91 2.70002L94.8 20.6C95.4 20.5 96.1 20.4 96.7 20.2Z" fill="white"/>
<path d="M106.6 18.8L104.7 0.600006C104 0.700006 103.4 0.700003 102.7 0.800003L104.6 19C105.3 18.9 106 18.8 106.6 18.8V18.8Z" fill="white"/>
<path d="M115.6 18.4H116.6V0H114.6V18.3C115 18.4 115.3 18.4 115.6 18.4V18.4Z" fill="white"/>
<path d="M126.6 19L128.5 0.800003C127.8 0.700003 127.2 0.600006 126.5 0.600006L124.6 18.8C125.3 18.8 125.9 18.9 126.6 19Z" fill="white"/>
<path d="M136.5 20.7L140.3 2.80002C139.7 2.70002 139 2.50002 138.4 2.40002L134.5 20.2C135.2 20.4 135.8 20.5 136.5 20.7Z" fill="white"/>
<path d="M146.1 23.3L151.8 5.90002C151.2 5.70002 150.6 5.50002 149.9 5.30002L144.2 22.7C144.8 22.9 145.5 23.1 146.1 23.3Z" fill="white"/>
<path d="M155.4 27L162.9 10.3C162.3 10 161.7 9.7 161.1 9.5L153.6 26.2C154.2 26.5 154.8 26.8 155.4 27V27Z" fill="white"/>
<path d="M164.3 31.7L173.5 15.8C172.9 15.5 172.4 15.1 171.8 14.8L162.6 30.7C163.1 31 163.7 31.3 164.3 31.7Z" fill="white"/>
<path d="M172.6 37.2L183.4 22.4C182.9 22 182.3 21.6 181.8 21.3L171 36.1C171.5 36.4 172.1 36.8 172.6 37.2Z" fill="white"/>
<path d="M180.3 43.6L192.6 30C192.1 29.6 191.6 29.1 191.1 28.7L178.8 42.3C179.3 42.7 179.8 43.1 180.3 43.6V43.6Z" fill="white"/>
<path d="M187.3 50.7L200.9 38.4C200.5 37.9 200 37.4 199.6 36.9L186 49.2C186.4 49.7 186.9 50.2 187.3 50.7Z" fill="white"/>
<path d="M193.5 58.6L208.3 47.8C207.9 47.3 207.5 46.7 207.2 46.2L192.4 57C192.8 57.5 193.1 58 193.5 58.6Z" fill="white"/>
<path d="M198.9 67L214.8 57.8C214.5 57.2 214.1 56.7 213.8 56.1L197.9 65.3C198.2 65.9 198.6 66.4 198.9 67Z" fill="white"/>
<path d="M203.3 76L220 68.5C219.7 67.9 219.5 67.3 219.2 66.7L202.5 74.2C202.8 74.8 203.1 75.4 203.3 76Z" fill="white"/>
<path d="M206.8 85.3L224.2 79.6C224 79 223.8 78.4 223.6 77.7L206.2 83.4C206.4 84.1 206.6 84.7 206.8 85.3Z" fill="white"/>
<path d="M209.3 95L227.2 91.2C227.1 90.5 226.9 89.9 226.8 89.3L208.9 93.1C209 93.7 209.2 94.4 209.3 95Z" fill="white"/>
<path d="M209.049 131.368L227.04 134.708C227.125 134.106 227.307 133.401 227.391 132.799L209.4 129.458C209.315 130.06 209.133 130.765 209.049 131.368Z" fill="white"/>
<path d="M205.2 140.5L222.6 146.2C222.8 145.6 223 145 223.2 144.3L205.8 138.6C205.6 139.3 205.4 139.9 205.2 140.5Z" fill="white"/>
<path d="M201.5 149.9L218.2 157.4C218.5 156.8 218.8 156.2 219 155.6L202.3 148.1C202.1 148.7 201.8 149.3 201.5 149.9Z" fill="white"/>
<path d="M26.8999 148L10.1999 155.5C10.4999 156.1 10.7 156.7 11 157.3L27.7 149.8C27.4 149.2 27.0999 148.6 26.8999 148Z" fill="white"/>
<path d="M23.3999 138.7L5.99988 144.4C6.19988 145 6.39988 145.6 6.59988 146.3L23.9999 140.6C23.7999 139.9 23.5999 139.3 23.3999 138.7Z" fill="white"/>
<path d="M20.8999 129L2.99994 132.8C3.09994 133.5 3.29993 134.1 3.39993 134.7L21.2999 130.9C21.1999 130.3 20.9999 129.6 20.8999 129Z" fill="white"/>
<path d="M18.6992 184.633H26.4453V187H15.7344V169.938H18.6992V184.633ZM27.9102 180.543C27.9102 179.301 28.1562 178.184 28.6484 177.191C29.1406 176.191 29.832 175.426 30.7227 174.895C31.6133 174.355 32.6367 174.086 33.793 174.086C35.5039 174.086 36.8906 174.637 37.9531 175.738C39.0234 176.84 39.6016 178.301 39.6875 180.121L39.6992 180.789C39.6992 182.039 39.457 183.156 38.9727 184.141C38.4961 185.125 37.8086 185.887 36.9102 186.426C36.0195 186.965 34.9883 187.234 33.8164 187.234C32.0273 187.234 30.5938 186.641 29.5156 185.453C28.4453 184.258 27.9102 182.668 27.9102 180.684V180.543ZM30.7578 180.789C30.7578 182.094 31.0273 183.117 31.5664 183.859C32.1055 184.594 32.8555 184.961 33.8164 184.961C34.7773 184.961 35.5234 184.586 36.0547 183.836C36.5938 183.086 36.8633 181.988 36.8633 180.543C36.8633 179.262 36.5859 178.246 36.0312 177.496C35.4844 176.746 34.7383 176.371 33.793 176.371C32.8633 176.371 32.125 176.742 31.5781 177.484C31.0312 178.219 30.7578 179.32 30.7578 180.789ZM53.2461 183.074L55.2617 174.32H58.0391L54.582 187H52.2383L49.5195 178.293L46.8477 187H44.5039L41.0352 174.32H43.8125L45.8633 182.98L48.4648 174.32H50.6094L53.2461 183.074Z" fill="white"/>
<path d="M182.281 187H179.328V179.418H171.699V187H168.734V169.938H171.699V177.039H179.328V169.938H182.281V187ZM188.551 187H185.703V174.32H188.551V187ZM185.527 171.027C185.527 170.59 185.664 170.227 185.938 169.938C186.219 169.648 186.617 169.504 187.133 169.504C187.648 169.504 188.047 169.648 188.328 169.938C188.609 170.227 188.75 170.59 188.75 171.027C188.75 171.457 188.609 171.816 188.328 172.105C188.047 172.387 187.648 172.527 187.133 172.527C186.617 172.527 186.219 172.387 185.938 172.105C185.664 171.816 185.527 171.457 185.527 171.027ZM191.164 180.566C191.164 178.598 191.625 177.027 192.547 175.855C193.477 174.676 194.707 174.086 196.238 174.086C197.684 174.086 198.82 174.59 199.648 175.598L199.777 174.32H202.344V186.613C202.344 188.277 201.824 189.59 200.785 190.551C199.754 191.512 198.359 191.992 196.602 191.992C195.672 191.992 194.762 191.797 193.871 191.406C192.988 191.023 192.316 190.52 191.855 189.895L193.203 188.184C194.078 189.223 195.156 189.742 196.438 189.742C197.383 189.742 198.129 189.484 198.676 188.969C199.223 188.461 199.496 187.711 199.496 186.719V185.863C198.676 186.777 197.582 187.234 196.215 187.234C194.73 187.234 193.516 186.645 192.57 185.465C191.633 184.285 191.164 182.652 191.164 180.566ZM194 180.812C194 182.086 194.258 183.09 194.773 183.824C195.297 184.551 196.02 184.914 196.941 184.914C198.09 184.914 198.941 184.422 199.496 183.438V177.859C198.957 176.898 198.113 176.418 196.965 176.418C196.027 176.418 195.297 176.789 194.773 177.531C194.258 178.273 194 179.367 194 180.812ZM208.086 175.703C209.016 174.625 210.191 174.086 211.613 174.086C214.316 174.086 215.688 175.629 215.727 178.715V187H212.879V178.82C212.879 177.945 212.688 177.328 212.305 176.969C211.93 176.602 211.375 176.418 210.641 176.418C209.5 176.418 208.648 176.926 208.086 177.941V187H205.238V169H208.086V175.703Z" fill="white"/>
</svg>
